# xmcd CD database file
#
# Track frame offsets:
#	150
#	31793
#	65085
#	81943
#	120563
#	141223
#	176793
#	211195
#	255810
#	275818
#
# Disc length: 4063 seconds
#
# Revision: 0
# Processed by: cddbd v1.4PL0 Copyright (c) Steve Scherf et al.
# Submitted via: CDex 1.50Beta7
#
DISCID=8d0fdd0a
DTITLE=Various Artist - Works Of Art - Volume 2
DYEAR=1993
DGENRE=Jazz
TTITLE0=Bruce Katz Band - Crescent Crawl
TTITLE1=Bennie Wallace - At Lulu White´s
TTITLE2=Robert Lucas - Blues Man From LA
TTITLE3=Larry Willis - "D" Bass-ic Blues
TTITLE4=Mighty Sam McClain - Too Proud
TTITLE5=Jeff Palmer - Blues On The Corner
TTITLE6=R.Earl and The Broadcasters - Kansas City Monarch
TTITLE7=Victor Lewis - Lil´Sis
TTITLE8=Mokave - Pepe´Linque
TTITLE9=Sasha Matson - steel Dances
EXTD=YEAR: 1993
EXTT0=
EXTT1=
EXTT2=
EXTT3=
EXTT4=
EXTT5=
EXTT6=
EXTT7=
EXTT8=
EXTT9=
PLAYORDER=
